HIERARCHY
ROOT newVegas:Hips
{
	OFFSET 0.000000 96.479958 0.000000
	CHANNELS 6 Xposition Yposition Zposition Xrotation Yrotation Zrotation
	JOINT newVegas:Pelvis
	{
		OFFSET 0.000000 0.000000 0.000000
		CHANNELS 3 Xrotation Yrotation Zrotation
		JOINT newVegas:LeftUpLeg
		{
			OFFSET 18.735201 -5.666702 -4.541200
			CHANNELS 3 Xrotation Yrotation Zrotation
			JOINT newVegas:LeftLeg
			{
				OFFSET -0.021200 -31.938179 0.493100
				CHANNELS 3 Xrotation Yrotation Zrotation
				JOINT newVegas:LeftFoot
				{
					OFFSET 0.021200 -31.938179 -4.336299
					CHANNELS 3 Xrotation Yrotation Zrotation
					JOINT newVegas:LeftToeBase
					{
						OFFSET 0.943001 -26.722000 15.023500
						CHANNELS 3 Xrotation Yrotation Zrotation
						End Site
						{
							OFFSET 0.000000 30.670183 0.000000
						}
					}
				}
				JOINT newVegas:Left_PantLeg
				{
					OFFSET 0.663870 -9.044666 -1.108900
					CHANNELS 3 Xrotation Yrotation Zrotation
					End Site
					{
						OFFSET 1.415995 20.635357 0.000000
					}
				}
			}
		}
		JOINT newVegas:RightUpLeg
		{
			OFFSET -18.735201 -5.666702 -4.541200
			CHANNELS 3 Xrotation Yrotation Zrotation
			JOINT newVegas:RightLeg
			{
				OFFSET 0.018946 -31.938133 0.493100
				CHANNELS 3 Xrotation Yrotation Zrotation
				JOINT newVegas:RightFoot
				{
					OFFSET -0.018946 -31.938126 -4.336299
					CHANNELS 3 Xrotation Yrotation Zrotation
					JOINT newVegas:RightToeBase
					{
						OFFSET -0.943001 -26.722004 15.023500
						CHANNELS 3 Xrotation Yrotation Zrotation
						End Site
						{
							OFFSET 0.000000 30.670187 0.000000
						}
					}
				}
				JOINT newVegas:Right_PantLeg
				{
					OFFSET -0.661674 -9.044716 -1.108900
					CHANNELS 3 Xrotation Yrotation Zrotation
					End Site
					{
						OFFSET -1.415958 20.635269 0.000000
					}
				}
			}
		}
	}
	JOINT newVegas:Spine
	{
		OFFSET 0.000000 10.199997 -0.299500
		CHANNELS 3 Xrotation Yrotation Zrotation
		JOINT newVegas:Spine1
		{
			OFFSET 0.000000 11.900002 -1.516600
			CHANNELS 3 Xrotation Yrotation Zrotation
			JOINT newVegas:Spine2
			{
				OFFSET 0.000000 13.600006 -2.842500
				CHANNELS 3 Xrotation Yrotation Zrotation
				JOINT newVegas:Neck
				{
					OFFSET 0.000000 9.624100 -2.890100
					CHANNELS 3 Xrotation Yrotation Zrotation
					JOINT newVegas:Head
					{
						OFFSET 0.000000 14.068802 -1.351900
						CHANNELS 3 Xrotation Yrotation Zrotation
						JOINT newVegas:Hair_Back
						{
							OFFSET 0.000000 3.231903 -17.524799
							CHANNELS 3 Xrotation Yrotation Zrotation
							End Site
							{
								OFFSET 0.000000 19.849884 0.000000
							}
						}
						JOINT newVegas:Hair_Front
						{
							OFFSET 0.000000 31.260406 4.573800
							CHANNELS 3 Xrotation Yrotation Zrotation
							JOINT newVegas:Hair_Front1
							{
								OFFSET 0.000000 2.284103 11.993300
								CHANNELS 3 Xrotation Yrotation Zrotation
								JOINT newVegas:Hair_Front2
								{
									OFFSET 0.000000 2.284103 11.993300
									CHANNELS 3 Xrotation Yrotation Zrotation
									End Site
									{
										OFFSET 0.000000 12.208862 0.000000
									}
								}
							}
						}
						JOINT newVegas:Jowel
						{
							OFFSET 0.000000 -7.458206 6.864100
							CHANNELS 3 Xrotation Yrotation Zrotation
							End Site
							{
								OFFSET 0.000000 19.849884 0.000000
							}
						}
					}
				}
				JOINT newVegas:LeftShoulder
				{
					OFFSET 15.263000 10.923401 -0.547700
					CHANNELS 3 Xrotation Yrotation Zrotation
					JOINT newVegas:LeftArm
					{
						OFFSET 25.438599 -2.830597 -13.032500
						CHANNELS 3 Xrotation Yrotation Zrotation
						JOINT newVegas:LeftForeArm
						{
							OFFSET 29.960503 0.000000 0.000000
							CHANNELS 3 Xrotation Yrotation Zrotation
							JOINT newVegas:LeftHand
							{
								OFFSET 27.849251 0.000000 0.000000
								CHANNELS 3 Xrotation Yrotation Zrotation
								JOINT newVegas:LeftHandThumb1
								{
									OFFSET 4.487587 -3.305161 6.305391
									CHANNELS 3 Xrotation Yrotation Zrotation
									JOINT newVegas:LeftHandThumb2
									{
										OFFSET 5.480453 -3.164139 3.164143
										CHANNELS 3 Xrotation Yrotation Zrotation
										JOINT newVegas:LeftHandThumb3
										{
											OFFSET 5.159721 -2.978973 2.978967
											CHANNELS 3 Xrotation Yrotation Zrotation
											End Site
											{
												OFFSET 2.494507 5.926697 1.738678
											}
										}
									}
								}
								JOINT newVegas:LeftHandIndex1
								{
									OFFSET 18.578728 -0.527832 5.208049
									CHANNELS 3 Xrotation Yrotation Zrotation
									JOINT newVegas:LeftHandIndex2
									{
										OFFSET 3.192009 0.000000 0.000000
										CHANNELS 3 Xrotation Yrotation Zrotation
										JOINT newVegas:LeftHandIndex3
										{
											OFFSET 3.835129 0.000000 0.000000
											CHANNELS 3 Xrotation Yrotation Zrotation
											End Site
											{
												OFFSET -0.034599 3.816971 0.371180
											}
										}
									}
								}
								JOINT newVegas:LeftHandMiddle1
								{
									OFFSET 18.476105 0.000000 0.000000
									CHANNELS 3 Xrotation Yrotation Zrotation
									JOINT newVegas:LeftHandMiddle2
									{
										OFFSET 3.324875 0.000000 0.000000
										CHANNELS 3 Xrotation Yrotation Zrotation
										JOINT newVegas:LeftHandMiddle3
										{
											OFFSET 4.596550 0.000000 0.000000
											CHANNELS 3 Xrotation Yrotation Zrotation
											End Site
											{
												OFFSET 0.057701 4.578827 0.399218
											}
										}
									}
								}
								JOINT newVegas:LeftHandRing1
								{
									OFFSET 17.732719 0.121887 -4.201567
									CHANNELS 3 Xrotation Yrotation Zrotation
									JOINT newVegas:LeftHandRing2
									{
										OFFSET 2.733170 0.000000 0.000000
										CHANNELS 3 Xrotation Yrotation Zrotation
										JOINT newVegas:LeftHandRing3
										{
											OFFSET 3.178268 0.000000 0.000000
											CHANNELS 3 Xrotation Yrotation Zrotation
											End Site
											{
												OFFSET 0.119102 3.170624 0.185394
											}
										}
									}
								}
								JOINT newVegas:LeftHandPinky1
								{
									OFFSET 15.989624 -0.606689 -7.535461
									CHANNELS 3 Xrotation Yrotation Zrotation
									JOINT newVegas:LeftHandPinky2
									{
										OFFSET 2.538986 0.000000 0.000000
										CHANNELS 3 Xrotation Yrotation Zrotation
										JOINT newVegas:LeftHandPinky3
										{
											OFFSET 2.593102 0.000000 0.000000
											CHANNELS 3 Xrotation Yrotation Zrotation
											End Site
											{
												OFFSET -0.150902 2.584198 0.152708
											}
										}
									}
								}
							}
							JOINT newVegas:Left_Sleeve
							{
								OFFSET 0.267448 -0.649796 0.577675
								CHANNELS 3 Xrotation Yrotation Zrotation
								End Site
								{
									OFFSET 0.000000 15.991241 0.000000
								}
							}
							JOINT newVegas:Left_CapeC
							{
								OFFSET 15.715958 -8.608795 -6.935905
								CHANNELS 3 Xrotation Yrotation Zrotation
								JOINT newVegas:Left_CapeC1
								{
									OFFSET 0.000000 -8.688499 0.000000
									CHANNELS 3 Xrotation Yrotation Zrotation
									End Site
									{
										OFFSET 0.000000 8.688499 0.000000
									}
								}
							}
						}
						JOINT newVegas:Left_CapeB
						{
							OFFSET 26.118385 -8.608795 -7.079235
							CHANNELS 3 Xrotation Yrotation Zrotation
							JOINT newVegas:Left_CapeB1
							{
								OFFSET 0.000000 -8.688499 0.000000
								CHANNELS 3 Xrotation Yrotation Zrotation
								End Site
								{
									OFFSET 0.000000 8.688499 0.000000
								}
							}
						}
						JOINT newVegas:Left_CapeA
						{
							OFFSET 5.115639 -8.608795 -10.395809
							CHANNELS 3 Xrotation Yrotation Zrotation
							JOINT newVegas:Left_CapeA1
							{
								OFFSET 0.000000 -8.688499 0.000000
								CHANNELS 3 Xrotation Yrotation Zrotation
								End Site
								{
									OFFSET 0.000000 8.688499 0.000000
								}
							}
						}
					}
				}
				JOINT newVegas:RightShoulder
				{
					OFFSET -15.263000 10.923401 -0.547700
					CHANNELS 3 Xrotation Yrotation Zrotation
					JOINT newVegas:RightArm
					{
						OFFSET -25.438599 -2.830597 -13.032500
						CHANNELS 3 Xrotation Yrotation Zrotation
						JOINT newVegas:RightForeArm
						{
							OFFSET -29.960503 0.000000 0.000000
							CHANNELS 3 Xrotation Yrotation Zrotation
							JOINT newVegas:RightHand
							{
								OFFSET -27.849251 0.000000 0.000000
								CHANNELS 3 Xrotation Yrotation Zrotation
								JOINT newVegas:RightHandThumb1
								{
									OFFSET -4.487587 -3.305161 6.305391
									CHANNELS 3 Xrotation Yrotation Zrotation
									JOINT newVegas:RightHandThumb2
									{
										OFFSET -5.480453 -3.164139 3.164143
										CHANNELS 3 Xrotation Yrotation Zrotation
										JOINT newVegas:RightHandThumb3
										{
											OFFSET -5.159721 -2.978973 2.978967
											CHANNELS 3 Xrotation Yrotation Zrotation
											End Site
											{
												OFFSET -2.494507 5.926697 1.738678
											}
										}
									}
								}
								JOINT newVegas:RightHandIndex1
								{
									OFFSET -18.578728 -0.527832 5.208049
									CHANNELS 3 Xrotation Yrotation Zrotation
									JOINT newVegas:RightHandIndex2
									{
										OFFSET -3.192009 0.000000 0.000000
										CHANNELS 3 Xrotation Yrotation Zrotation
										JOINT newVegas:RightHandIndex3
										{
											OFFSET -3.835129 0.000000 0.000000
											CHANNELS 3 Xrotation Yrotation Zrotation
											End Site
											{
												OFFSET 0.034599 3.816971 0.371180
											}
										}
									}
								}
								JOINT newVegas:RightHandMiddle1
								{
									OFFSET -18.476105 0.000000 0.000000
									CHANNELS 3 Xrotation Yrotation Zrotation
									JOINT newVegas:RightHandMiddle2
									{
										OFFSET -3.324875 0.000000 0.000000
										CHANNELS 3 Xrotation Yrotation Zrotation
										JOINT newVegas:RightHandMiddle3
										{
											OFFSET -4.596550 0.000000 0.000000
											CHANNELS 3 Xrotation Yrotation Zrotation
											End Site
											{
												OFFSET -0.057701 4.578827 0.399218
											}
										}
									}
								}
								JOINT newVegas:RightHandRing1
								{
									OFFSET -17.732719 0.121887 -4.201567
									CHANNELS 3 Xrotation Yrotation Zrotation
									JOINT newVegas:RightHandRing2
									{
										OFFSET -2.733170 0.000000 0.000000
										CHANNELS 3 Xrotation Yrotation Zrotation
										JOINT newVegas:RightHandRing3
										{
											OFFSET -3.178268 0.000000 0.000000
											CHANNELS 3 Xrotation Yrotation Zrotation
											End Site
											{
												OFFSET -0.119102 3.170624 0.185394
											}
										}
									}
								}
								JOINT newVegas:RightHandPinky1
								{
									OFFSET -15.989624 -0.606689 -7.535461
									CHANNELS 3 Xrotation Yrotation Zrotation
									JOINT newVegas:RightHandPinky2
									{
										OFFSET -2.538986 0.000000 0.000000
										CHANNELS 3 Xrotation Yrotation Zrotation
										JOINT newVegas:RightHandPinky3
										{
											OFFSET -2.593102 0.000000 0.000000
											CHANNELS 3 Xrotation Yrotation Zrotation
											End Site
											{
												OFFSET 0.150902 2.584198 0.152708
											}
										}
									}
								}
							}
							JOINT newVegas:Right_CapeC
							{
								OFFSET -15.715958 -8.608795 -6.935905
								CHANNELS 3 Xrotation Yrotation Zrotation
								JOINT newVegas:Right_CapeC1
								{
									OFFSET 0.000000 -8.688499 0.000000
									CHANNELS 3 Xrotation Yrotation Zrotation
									End Site
									{
										OFFSET 0.000000 8.688499 0.000000
									}
								}
							}
							JOINT newVegas:Right_Sleeve
							{
								OFFSET -0.267448 -0.649994 0.577675
								CHANNELS 3 Xrotation Yrotation Zrotation
								End Site
								{
									OFFSET 0.000000 15.991302 0.000000
								}
							}
						}
						JOINT newVegas:Right_CapeA
						{
							OFFSET -5.115540 -8.608795 -10.395824
							CHANNELS 3 Xrotation Yrotation Zrotation
							JOINT newVegas:Right_CapeA1
							{
								OFFSET 0.000000 -8.688499 0.000000
								CHANNELS 3 Xrotation Yrotation Zrotation
								End Site
								{
									OFFSET 0.000000 8.688499 0.000000
								}
							}
						}
						JOINT newVegas:Right_CapeB
						{
							OFFSET -26.118187 -8.608795 -7.079266
							CHANNELS 3 Xrotation Yrotation Zrotation
							JOINT newVegas:Right_CapeB1
							{
								OFFSET 0.000000 -8.688499 0.000000
								CHANNELS 3 Xrotation Yrotation Zrotation
								End Site
								{
									OFFSET 0.000000 8.688499 0.000000
								}
							}
						}
					}
				}
				JOINT newVegas:Left_Collar
				{
					OFFSET 18.625099 8.655502 8.828100
					CHANNELS 3 Xrotation Yrotation Zrotation
					JOINT newVegas:Left_Collar1
					{
						OFFSET 14.783401 10.540405 -1.259500
						CHANNELS 3 Xrotation Yrotation Zrotation
						End Site
						{
							OFFSET 0.000000 18.199875 0.000000
						}
					}
				}
				JOINT newVegas:Collar_Back
				{
					OFFSET 0.000000 15.630707 -20.132601
					CHANNELS 3 Xrotation Yrotation Zrotation
					End Site
					{
						OFFSET 0.000000 22.523010 0.000000
					}
				}
				JOINT newVegas:Left_Peck
				{
					OFFSET 17.239599 -5.132599 25.482599
					CHANNELS 3 Xrotation Yrotation Zrotation
					End Site
					{
						OFFSET 0.000000 22.523010 0.000000
					}
				}
				JOINT newVegas:Right_Peck
				{
					OFFSET -17.239599 -5.132202 25.482599
					CHANNELS 3 Xrotation Yrotation Zrotation
					End Site
					{
						OFFSET 0.000000 22.523010 0.000000
					}
				}
				JOINT newVegas:Right_Collar
				{
					OFFSET -18.625099 8.655792 8.828100
					CHANNELS 3 Xrotation Yrotation Zrotation
					JOINT newVegas:Right_Collar1
					{
						OFFSET -14.783401 10.539993 -1.259500
						CHANNELS 3 Xrotation Yrotation Zrotation
						End Site
						{
							OFFSET 0.000000 18.199631 0.000000
						}
					}
				}
			}
		}
		JOINT newVegas:Belly
		{
			OFFSET 0.000000 -6.540398 9.014299
			CHANNELS 3 Xrotation Yrotation Zrotation
			End Site
			{
				OFFSET 0.000000 11.566666 0.000000
			}
		}
	}
	JOINT newVegas:ElvisFacialAnim_Joint
	{
		OFFSET 1.000000 -95.330101 -8.825800
		CHANNELS 3 Xrotation Yrotation Zrotation
		End Site
		{
			OFFSET 0.000000 35.315800 0.000000
		}
	}
}
MOTION
Frames: 4
Frame Time: 0.016667
0.506953 75.089684 2.461665 7.472469 1.999118 -3.196637 -0.000000 -0.000000 -0.000000 33.541266 18.724112 4.556560 11.592046 -5.651767 4.862746 -43.418587 -2.008046 -0.925337 0.000001 0.000000 0.000000 0.000005 -0.000000 0.000002 -72.200482 -3.519037 -0.246047 77.141714 -2.797946 -0.207618 -12.532354 3.038425 -5.251238 -0.000000 -0.000000 0.000000 -0.000001 0.000000 -0.000000 1.541827 -1.688468 1.643263 4.463941 -2.897045 3.069452 4.470553 -2.960904 2.997962 -2.661838 0.920827 -0.347962 -2.661837 0.920826 -0.347956 0.000000 0.000000 0.000000 -2.661692 0.920822 -0.347955 -2.661915 0.920783 -0.347944 0.000000 0.000000 -0.000000 0.000000 0.000000 -0.000000 -0.863853 7.389832 -0.025976 -11.563468 10.383924 -66.345514 0.000028 -115.180103 0.000036 -72.996212 -11.310950 -18.454654 2.694224 20.233100 14.029387 2.246563 5.062590 -0.344655 0.000002 0.000000 -0.000001 5.768261 6.881137 -88.058753 5.425124 5.835606 -85.818103 -0.000000 0.000001 -0.000002 -0.017677 7.177007 -79.088311 3.595318 5.400140 -67.288196 0.000004 0.000001 0.000001 0.351613 7.858060 -86.242381 3.058242 5.143540 -61.447865 -0.000005 0.000001 -0.000000 -3.192649 8.750441 -83.420918 6.384904 5.826714 -95.244099 -0.000003 -0.000005 0.000001 -0.000000 -0.000000 0.000000 -0.000000 -0.000000 0.000000 -0.000001 -0.000000 0.000000 -0.000001 0.000000 -0.000000 -0.000001 0.000000 0.000000 -0.000001 0.000000 -0.000000 -0.000001 -0.000000 -0.000000 0.518558 -7.917612 14.973078 -19.108964 0.823922 54.259993 0.000073 114.793869 -0.000064 -65.260941 9.926079 32.064726 2.274835 -18.433738 -12.204884 2.753427 -6.766191 -0.612023 -0.000001 0.000000 -0.000000 5.674724 -1.758895 87.252750 4.318627 -4.644860 85.826661 -0.000001 -0.000002 0.000001 2.028892 -6.487524 78.554736 2.866343 -4.299773 67.363253 -0.000003 0.000001 0.000000 -1.327499 -6.487794 85.540196 2.437375 -4.095127 61.507192 0.000000 0.000001 -0.000001 -13.485144 -6.858220 82.489588 5.081593 -4.637801 95.235069 0.000001 -0.000000 0.000002 -0.000001 -0.000002 0.000000 -0.000001 -0.000000 0.000000 -0.000001 -0.000002 0.000001 0.000001 0.000001 -0.000003 0.000002 0.000002 -0.000001 0.000001 0.000001 -0.000003 0.000002 0.000002 -0.000001 -0.000001 -0.000000 0.000000 -0.000001 -0.000000 0.000000 -0.000001 -0.000000 0.000000 -0.000001 -0.000000 0.000000 -0.000001 -0.000000 0.000000 -0.000001 -0.000000 0.000000 -0.000001 -0.000000 0.000000 0.000001 0.000000 0.000000 -0.000000 -0.000000 -0.000000 
0.631363 77.597839 3.572548 7.388555 3.740452 -2.239337 -0.000000 -0.000000 -0.000000 28.675641 16.584987 4.300646 15.903771 -4.496927 6.765474 -37.174172 -1.836832 -0.937699 -0.000000 0.000000 -0.000001 0.000005 0.000000 0.000001 -67.623579 -3.178268 -1.364275 73.530313 -3.590018 -0.395130 -13.385587 3.149659 -5.688153 -0.000000 -0.000000 0.000000 -0.000000 0.000000 -0.000000 1.679695 -1.786193 1.479202 3.785097 -3.090957 2.685692 3.791149 -3.134330 2.617750 -2.461188 0.861942 -0.452176 -2.461184 0.861941 -0.452172 0.000002 -0.000000 0.000000 -2.461118 0.861943 -0.452176 -2.461266 0.861945 -0.452174 0.000000 0.000000 -0.000000 0.000002 -0.000000 -0.000000 -0.699220 6.301895 -0.123048 -14.747391 8.597204 -65.355089 0.000116 -113.772367 0.000107 -71.122828 -11.217033 -18.021022 2.956458 20.391928 13.868026 2.256795 5.074897 -0.335815 0.000003 0.000001 -0.000003 5.832244 6.953403 -87.643683 5.383910 5.832431 -85.412663 0.000002 0.000000 -0.000000 0.075933 7.167604 -78.770550 3.574158 5.391274 -67.063059 0.000003 -0.000000 -0.000001 0.430397 7.837949 -85.961742 3.052584 5.140471 -61.384686 0.000004 -0.000001 0.000001 -3.123908 8.721519 -83.173488 6.386813 5.826552 -95.262950 0.000002 -0.000002 -0.000001 -0.000003 -0.000001 0.000000 -0.000003 -0.000001 0.000000 -0.000004 -0.000001 0.000000 0.000001 -0.000001 -0.000003 0.000001 -0.000001 -0.000003 0.000001 -0.000001 -0.000003 0.000001 0.000000 -0.000003 0.413489 -7.788723 13.845026 -20.755799 2.647588 54.652486 0.000103 114.710295 -0.000108 -65.124925 9.634434 30.561661 2.414905 -18.861663 -12.282912 2.756545 -6.763772 -0.616803 -0.000000 -0.000004 -0.000003 5.724090 -2.009598 86.044681 4.254357 -4.639763 85.032659 -0.000002 -0.000001 0.000000 2.223326 -6.492708 77.328192 2.805694 -4.274066 66.551847 -0.000001 -0.000001 0.000002 -1.004140 -6.353165 83.832717 2.365602 -4.055442 60.497417 0.000000 0.000001 0.000001 -13.015735 -6.850555 80.337689 4.970050 -4.646648 93.856635 0.000002 0.000003 0.000000 -0.000002 -0.000000 0.000000 -0.000002 -0.000001 0.000000 -0.000002 -0.000001 -0.000000 -0.000000 0.000001 -0.000001 0.000000 0.000001 0.000001 -0.000000 0.000001 -0.000001 0.000000 0.000001 0.000001 0.000001 -0.000000 0.000000 0.000001 -0.000000 0.000000 0.000001 -0.000000 0.000000 0.000001 -0.000000 0.000000 0.000001 -0.000000 0.000000 0.000001 -0.000000 0.000000 0.000001 -0.000000 0.000000 -0.000000 -0.000000 -0.000000 -0.000000 -0.000000 -0.000000 
0.855844 80.247856 4.317117 7.041922 5.561216 -1.476383 0.000000 -0.000000 0.000000 20.166422 14.207277 3.920998 25.035083 -1.411875 10.249271 -29.391643 -0.965886 -2.542188 -0.000002 0.000000 -0.000001 0.000003 -0.000000 -0.000000 -62.624789 -3.067058 -2.359419 68.732603 -4.451018 -0.602663 -13.224712 3.194565 -6.147801 0.000000 0.000000 -0.000001 0.000000 -0.000000 -0.000000 2.307059 -1.831023 1.798539 3.099219 -3.162404 2.168580 3.091625 -3.180354 2.120447 -2.264440 0.783676 -0.581132 -2.264441 0.783676 -0.581134 -0.000000 0.000000 -0.000000 -2.264436 0.783675 -0.581133 -2.264364 0.783677 -0.581133 0.000000 0.000000 -0.000000 -0.000000 0.000000 -0.000000 -0.472603 4.837150 -0.286772 -18.246978 6.118550 -64.201121 0.000044 -111.959279 0.000028 -70.528315 -11.069072 -17.672993 3.052318 20.083159 13.631496 2.282465 5.105819 -0.313560 0.000003 0.000000 0.000001 5.739241 6.804737 -86.402392 5.292538 5.824423 -84.512963 -0.000003 -0.000001 0.000000 0.063384 7.084342 -77.817821 3.517035 5.366861 -66.453779 0.000001 0.000001 -0.000000 0.429295 7.766157 -85.148553 3.012654 5.118553 -60.938033 0.000003 -0.000001 0.000000 -3.111942 8.578968 -82.473469 6.327428 5.831683 -94.678190 0.000001 -0.000001 -0.000004 -0.000001 0.000001 -0.000001 -0.000001 0.000001 -0.000001 -0.000001 0.000001 -0.000001 -0.000002 0.000000 0.000003 -0.000002 0.000000 0.000003 -0.000002 0.000000 0.000003 -0.000002 -0.000000 0.000003 0.323427 -7.582996 12.788909 -22.735700 4.589335 55.000525 0.000138 114.546862 -0.000142 -66.009264 9.599541 29.265899 2.396711 -19.071085 -12.360050 2.764284 -6.757694 -0.628903 0.000000 -0.000004 0.000004 5.394716 -1.676053 84.200229 4.152338 -4.629790 83.770146 -0.000001 0.000002 -0.000002 2.177232 -6.430840 75.372606 2.732542 -4.241673 65.566497 -0.000002 -0.000003 -0.000001 -0.872474 -6.186908 81.800196 2.288858 -4.011150 59.406206 -0.000000 -0.000001 0.000000 -12.578756 -6.518164 78.150389 4.833882 -4.653776 92.177433 0.000001 0.000001 0.000001 -0.000001 -0.000000 -0.000000 -0.000002 -0.000000 0.000001 -0.000001 -0.000000 -0.000000 -0.000000 0.000001 0.000000 -0.000000 0.000002 0.000000 -0.000000 0.000001 0.000000 -0.000000 0.000002 0.000000 -0.000001 0.000000 -0.000000 -0.000001 0.000000 -0.000000 -0.000001 0.000000 -0.000000 -0.000001 0.000000 -0.000000 -0.000001 0.000000 -0.000000 -0.000001 0.000000 -0.000000 -0.000001 0.000000 -0.000000 0.000000 -0.000000 -0.000000 0.000000 -0.000000 0.000000 
1.188246 82.611504 4.509903 6.504325 7.342954 -0.926803 0.000000 0.000000 0.000000 8.631861 11.639302 3.602416 35.566038 3.151863 14.020880 -15.908373 0.024263 -5.905639 -0.000001 -0.000001 -0.000001 -0.000002 -0.000001 -0.000000 -58.111980 -3.137004 -2.972720 63.692224 -5.554294 -0.931861 -12.208561 3.267313 -6.906245 -0.000000 0.000000 0.000001 0.000000 -0.000000 -0.000000 3.201861 -1.793102 2.341727 2.446617 -3.124232 1.713961 2.423727 -3.115747 1.695900 -2.025554 0.705507 -0.745314 -2.025552 0.705507 -0.745317 -0.000000 -0.000000 -0.000000 -2.025482 0.705510 -0.745318 -2.025560 0.705505 -0.745316 0.000000 -0.000000 -0.000000 -0.000000 -0.000000 0.000000 -0.203421 3.122968 -0.566954 -21.904193 3.029753 -63.035051 0.000167 -109.690352 0.000181 -71.153441 -10.857871 -17.502983 3.052061 19.424585 13.311489 2.318680 5.149474 -0.282192 -0.000001 -0.000003 -0.000004 5.508300 6.540137 -84.404985 5.160485 5.810307 -83.210036 -0.000004 0.000002 0.000001 -0.028301 6.934515 -76.285809 3.430220 5.328364 -65.522292 -0.000004 -0.000001 0.000000 0.374612 7.647726 -83.847027 2.941956 5.078784 -60.142568 -0.000000 0.000001 -0.000000 -3.122371 8.407795 -81.338913 6.209366 5.840093 -93.517099 0.000004 0.000000 -0.000003 0.000000 -0.000001 -0.000000 0.000000 -0.000001 -0.000000 -0.000001 -0.000001 0.000000 -0.000000 0.000001 -0.000003 -0.000001 -0.000000 -0.000006 -0.000000 0.000001 -0.000003 -0.000000 0.000000 -0.000003 0.250418 -6.988276 11.672796 -25.083291 6.274637 55.058783 0.000003 114.221957 -0.000002 -67.297062 9.613012 28.187369 2.225127 -18.937422 -12.390632 2.775304 -6.749204 -0.645846 0.000000 -0.000005 0.000000 4.860540 -0.985244 81.914807 4.024115 -4.614046 82.179156 -0.000001 -0.000005 0.000005 1.826100 -6.267490 72.978700 2.650907 -4.203715 64.457793 -0.000002 0.000003 -0.000001 -0.841720 -5.998512 79.557347 2.208668 -3.962787 58.253092 -0.000001 0.000001 0.000000 -12.144799 -6.101620 75.947913 4.684002 -4.657075 90.330618 0.000001 -0.000000 -0.000001 0.000001 -0.000002 0.000000 0.000001 -0.000001 -0.000000 0.000001 -0.000003 0.000000 0.000000 -0.000001 -0.000001 -0.000000 0.000000 0.000001 0.000000 -0.000001 -0.000001 -0.000000 -0.000000 0.000001 0.000001 0.000000 0.000000 0.000001 0.000000 0.000000 0.000001 0.000000 0.000000 0.000001 0.000000 0.000000 0.000001 0.000000 0.000000 0.000001 0.000000 0.000000 0.000001 0.000000 0.000000 -0.000000 0.000000 -0.000000 0.000000 0.000000 0.000000 
